<?xml version="1.0" standalone="no"?>
<!DOCTYPE svg PUBLIC "-//W3C//DTD SVG 20010904//EN"
 "http://www.w3.org/TR/2001/REC-SVG-20010904/DTD/svg10.dtd">
<svg version="1.0" xmlns="http://www.w3.org/2000/svg"
 width="2048.000000pt" height="2048.000000pt" viewBox="0 0 2048.000000 2048.000000"
 preserveAspectRatio="xMidYMid meet">

<g transform="translate(0.000000,2048.000000) scale(0.100000,-0.100000)"
fill="#000000" stroke="none">
<path d="M2945 13048 c-52 -30 -77 -104 -55 -158 18 -43 61 -64 190 -95 63
-14 132 -31 152 -36 l36 -9 6 -73 c4 -39 10 -610 15 -1267 8 -1155 9 -1199 29
-1305 44 -231 124 -407 240 -529 133 -140 285 -216 527 -262 140 -27 424 -25
583 4 193 35 315 70 509 147 193 77 243 108 296 184 30 43 32 52 31 131 0 121
-41 231 -130 350 -53 71 -108 109 -181 126 -75 18 -138 6 -251 -47 -144 -68
-338 -106 -482 -96 -123 8 -176 43 -205 135 -10 31 -23 68 -29 82 -13 30 -22
888 -9 901 5 5 161 27 348 50 410 50 436 54 463 79 25 24 28 33 81 315 23 121
58 299 77 395 19 96 38 205 41 241 5 61 4 67 -21 92 l-27 27 -389 0 c-213 0
-395 3 -404 6 -14 5 -16 27 -16 144 0 154 -7 173 -77 207 -31 14 -45 15 -107
5 -39 -7 -194 -32 -344 -57 -151 -25 -284 -45 -297 -45 -27 0 -30 12 -41 133
-11 131 -9 130 -349 206 -151 34 -179 37 -210 19z m953 -974 c2 -129 0 -163
-12 -173 -9 -8 -66 -11 -187 -9 l-174 3 -18 55 c-31 93 -77 256 -77 273 0 14
26 16 233 14 l232 -2 3 -161z m528 157 c9 -10 4 -285 -6 -294 -11 -11 -365
-34 -377 -25 -8 7 -10 50 -7 156 3 81 7 153 10 160 4 15 364 18 380 3z m581
-7 c3 -9 0 -44 -6 -78 -7 -33 -17 -83 -21 -109 -15 -81 -17 -84 -63 -91 -35
-5 -275 -10 -341 -7 -18 1 -18 8 -12 143 4 79 10 146 12 150 2 3 99 7 214 8
187 1 211 -1 217 -16z m-81 -427 c4 -12 -42 -267 -51 -275 -7 -8 -288 -43
-302 -38 -11 5 -13 35 -11 158 l3 153 170 5 c94 3 174 7 178 8 4 1 10 -4 13
-11z m-496 -174 c0 -114 -3 -155 -12 -158 -16 -5 -328 -45 -355 -45 -19 0 -21
8 -25 163 -4 113 -2 165 6 174 6 6 81 16 181 23 93 6 172 13 174 16 2 2 10 -1
18 -7 10 -9 13 -49 13 -166z m-542 120 c16 -30 15 -328 0 -340 -7 -6 -56 -14
-108 -18 -107 -8 -112 -5 -125 55 -4 19 -25 93 -46 165 -21 71 -36 132 -31
137 4 4 66 9 137 11 72 1 138 4 147 5 10 1 21 -6 26 -15z"/>
<path d="M15300 11244 l0 -346 -27 7 c-111 28 -251 32 -378 9 -155 -28 -290
-108 -390 -234 -32 -40 -85 -129 -85 -143 0 -7 -5 -18 -10 -23 -18 -18 -58
-196 -69 -310 -19 -189 13 -394 86 -541 41 -85 141 -206 216 -262 71 -54 204
-114 302 -137 64 -15 116 -19 265 -18 217 1 372 23 613 85 l37 10 0 1079 0
1079 -52 10 c-29 6 -111 20 -183 31 -71 12 -166 28 -210 36 -44 8 -88 14 -97
14 -17 0 -18 -23 -18 -346z m-27 -823 l27 -11 0 -335 0 -335 -26 -6 c-43 -11
-173 6 -220 28 -84 39 -127 114 -144 253 -26 210 33 373 150 413 39 13 171 9
213 -7z"/>
<path d="M9133 11561 c-116 -40 -178 -129 -176 -256 2 -154 95 -253 248 -263
120 -7 222 44 270 137 22 44 29 137 15 205 -10 51 -20 67 -64 111 -41 41 -63
55 -112 68 -75 21 -114 21 -181 -2z"/>
<path d="M9902 11478 c-24 -137 -58 -423 -72 -603 -38 -474 -72 -942 -80
-1120 -6 -115 -14 -275 -19 -355 -4 -80 -6 -148 -4 -152 2 -5 141 -8 309 -8
l304 0 0 103 c0 56 4 185 9 287 6 102 15 313 21 470 12 296 15 330 29 330 5 0
37 -71 71 -157 35 -87 78 -191 97 -231 18 -39 33 -75 33 -78 0 -3 35 -85 79
-182 43 -98 82 -188 86 -202 4 -14 15 -35 23 -47 14 -23 18 -23 223 -23 l209
0 20 40 c11 21 29 61 39 88 11 27 30 71 42 98 44 101 53 120 74 174 13 30 58
138 102 240 44 102 89 206 99 232 19 48 28 56 39 39 8 -14 33 -549 41 -888 l7
-293 309 0 309 0 -5 78 c-3 42 -11 167 -16 277 -16 286 -38 640 -55 860 -31
398 -35 453 -45 545 -17 159 -42 370 -54 455 l-11 80 -274 0 -274 0 -25 -45
c-66 -123 -195 -388 -267 -550 -26 -58 -53 -118 -61 -135 -31 -67 -107 -244
-130 -304 -32 -81 -52 -121 -63 -121 -5 0 -23 35 -41 78 -61 145 -88 207 -150
342 -34 74 -74 164 -90 200 -51 121 -198 423 -246 507 l-19 33 -281 0 -282 0
-10 -62z"/>
<path d="M5630 10413 c0 -562 5 -631 54 -776 50 -147 138 -252 268 -318 127
-64 188 -74 453 -74 277 1 349 11 638 86 l37 10 0 794 0 795 -280 0 -280 0 0
-589 c0 -528 -2 -589 -16 -595 -9 -3 -48 -6 -88 -6 -134 0 -193 54 -216 200
-6 37 -10 261 -10 528 l0 462 -280 0 -280 0 0 -517z"/>
<path d="M7785 10924 c-16 -2 -68 -9 -115 -15 -106 -14 -247 -43 -323 -66
l-57 -18 -3 -793 -2 -792 283 0 282 0 0 590 0 590 26 6 c14 4 62 5 107 2 185
-10 197 -53 197 -723 0 -236 0 -438 0 -447 0 -17 20 -18 280 -18 l280 0 0 498
c0 284 -5 536 -11 587 -13 114 -59 265 -100 330 -48 75 -139 158 -216 195
-120 57 -195 71 -408 75 -104 2 -203 1 -220 -1z"/>
<path d="M8950 10910 c0 -11 0 -384 0 -830 0 -445 0 -817 0 -825 0 -13 38 -15
280 -15 l280 0 0 845 0 845 -280 0 c-273 0 -280 0 -280 -20z"/>
<path d="M13205 10924 c-201 -30 -376 -117 -485 -241 -69 -78 -80 -94 -115
-164 -71 -140 -95 -252 -95 -442 0 -119 4 -158 25 -241 25 -95 80 -229 107
-257 7 -8 26 -31 41 -52 156 -208 436 -312 751 -278 278 30 502 184 607 419
66 144 71 172 76 382 4 174 3 205 -16 284 -21 89 -81 231 -117 277 -27 34
-155 160 -184 181 -50 37 -193 100 -258 114 -68 15 -282 26 -337 18z m228
-505 c86 -43 122 -94 152 -214 31 -125 7 -283 -55 -368 -56 -76 -119 -107
-220 -107 -99 1 -186 57 -238 155 -26 48 -27 57 -27 195 0 138 1 148 28 202
30 60 89 121 141 144 50 22 169 18 219 -7z"/>
<path d="M16705 10923 c-154 -34 -260 -81 -330 -147 -11 -10 -30 -25 -42 -33
-41 -27 -132 -149 -172 -229 -61 -122 -91 -260 -92 -421 0 -148 5 -198 31
-293 51 -185 160 -336 313 -434 31 -20 59 -36 62 -36 3 0 26 -9 51 -20 172
-79 491 -90 744 -26 117 29 228 65 235 75 6 10 -65 453 -74 463 -4 5 -31 -1
-61 -11 -246 -87 -487 -100 -616 -35 -52 26 -94 68 -94 93 0 8 133 11 459 11
l459 0 7 117 c32 514 -167 844 -554 917 -77 15 -277 20 -326 9z m257 -505 c36
-27 74 -91 63 -107 -6 -11 -358 -15 -368 -5 -9 9 27 75 52 96 47 40 75 48 147
46 59 -3 77 -8 106 -30z"/>
</g>
</svg>
