<?xml version="1.0" standalone="no"?>
<!DOCTYPE svg PUBLIC "-//W3C//DTD SVG 20010904//EN"
 "http://www.w3.org/TR/2001/REC-SVG-20010904/DTD/svg10.dtd">
<svg version="1.0" xmlns="http://www.w3.org/2000/svg"
 width="2048.000000pt" height="2048.000000pt" viewBox="0 0 2048.000000 2048.000000"
 preserveAspectRatio="xMidYMid meet">

<g transform="translate(0.000000,2048.000000) scale(0.100000,-0.100000)"
fill="#000000" stroke="none">
<path d="M5747 16730 c-69 -7 -114 -21 -167 -52 -8 -5 -23 -11 -32 -14 -10 -4
-18 -10 -18 -15 0 -5 -4 -9 -8 -9 -13 0 -92 -78 -92 -90 0 -6 -10 -21 -23 -34
-39 -39 -93 -248 -76 -293 5 -14 9 -40 9 -59 0 -19 5 -34 10 -34 6 0 10 -11
10 -25 0 -14 4 -25 8 -25 4 0 14 -16 21 -36 7 -20 20 -44 30 -53 9 -9 28 -31
44 -50 33 -39 109 -92 157 -108 19 -7 78 -21 130 -33 52 -11 109 -24 125 -29
17 -5 62 -16 100 -25 39 -8 131 -29 205 -46 74 -17 155 -35 180 -40 25 -6 112
-26 194 -45 81 -19 157 -35 167 -35 10 0 30 -10 45 -23 24 -21 26 -29 31 -125
2 -57 7 -112 12 -124 4 -11 4 -40 1 -64 -4 -24 -3 -47 1 -51 7 -7 21 -203 22
-308 0 -22 4 -89 9 -150 4 -60 11 -159 14 -220 3 -60 7 -139 10 -175 2 -36 6
-1424 9 -3085 7 -4287 10 -4851 24 -4975 6 -58 18 -175 27 -260 25 -258 91
-630 157 -880 94 -355 248 -745 382 -965 25 -41 45 -77 45 -79 0 -6 171 -259
179 -266 4 -3 22 -25 41 -50 244 -316 589 -593 977 -786 98 -49 197 -97 221
-107 83 -34 312 -117 349 -127 312 -81 403 -103 548 -128 366 -66 687 -92
1115 -92 423 0 610 14 1030 76 500 74 1115 235 1635 427 22 8 81 29 130 46 50
18 108 41 131 51 22 10 67 26 100 36 95 27 362 140 569 239 312 150 514 329
623 551 72 148 97 264 96 439 -1 131 -31 319 -64 400 -5 11 -12 31 -16 45 -21
75 -134 347 -201 485 -48 98 -164 298 -183 315 -3 3 -17 23 -31 45 -15 22 -37
52 -50 66 -13 15 -51 57 -83 93 -136 154 -352 291 -536 338 -112 29 -340 36
-467 13 -158 -28 -319 -88 -568 -210 -126 -63 -248 -119 -270 -125 -175 -49
-292 -79 -360 -94 -44 -9 -105 -23 -135 -31 -58 -15 -227 -44 -395 -69 -275
-41 -623 -46 -790 -11 -193 40 -333 104 -428 198 -44 43 -61 71 -99 162 -61
144 -122 347 -147 482 -10 59 -25 137 -32 173 -10 51 -14 395 -16 1626 l-4
1562 38 6 c21 3 88 11 148 16 61 6 121 14 135 19 14 5 63 12 110 15 47 4 110
11 140 16 30 5 100 15 155 21 55 5 152 17 215 25 63 8 162 18 220 23 58 5 118
14 133 20 16 6 62 11 102 11 41 0 100 7 132 15 31 8 87 15 123 15 37 0 89 6
116 14 27 8 90 17 139 20 50 3 106 10 125 16 19 5 60 10 90 10 30 0 84 5 120
11 36 5 106 14 155 19 50 5 110 14 135 19 25 6 73 10 107 11 34 0 72 4 85 9
13 5 57 12 98 16 118 11 241 82 286 165 10 19 24 42 30 50 20 27 74 271 74
332 0 13 4 28 9 33 5 6 12 39 16 73 3 35 10 74 15 86 4 12 11 53 15 91 4 39
11 72 16 75 4 3 12 34 18 70 6 36 17 99 25 140 39 201 48 250 55 305 4 34 13
70 19 82 7 12 12 41 12 66 0 24 6 63 14 88 8 24 17 70 21 101 4 32 11 60 16
63 5 4 9 18 9 33 0 15 6 59 15 97 8 39 22 115 30 170 9 55 23 122 31 149 8 26
14 60 14 75 0 14 5 42 10 61 6 19 15 66 20 105 6 38 15 74 20 79 6 6 10 33 10
61 0 28 5 56 11 62 7 7 15 42 20 80 12 109 35 239 45 254 5 8 11 39 15 69 4
30 14 93 24 140 9 47 23 117 31 155 8 39 19 99 24 135 6 36 16 81 22 100 14
44 15 234 1 252 -6 7 -14 28 -18 46 -3 17 -10 32 -13 32 -4 0 -18 18 -32 40
-14 22 -27 40 -30 40 -3 0 -19 12 -36 28 -39 35 -68 49 -129 64 -37 9 -414 13
-1494 15 -894 2 -1448 7 -1456 13 -8 6 -10 79 -7 257 9 564 8 633 -12 713 -20
80 -51 139 -103 197 -18 20 -33 39 -33 42 0 4 -20 20 -45 35 -25 16 -45 33
-45 37 0 5 -6 9 -14 9 -8 0 -27 6 -43 14 -55 28 -103 37 -215 42 -114 5 -267
-14 -678 -85 -63 -11 -218 -36 -345 -56 -126 -19 -338 -53 -470 -75 -132 -21
-301 -48 -375 -60 -74 -11 -157 -25 -185 -30 -27 -6 -124 -21 -215 -35 -91
-14 -219 -35 -286 -47 -67 -11 -132 -18 -146 -15 -25 7 -25 9 -33 139 -4 73
-10 165 -12 203 -3 39 -6 124 -8 190 -4 108 -12 160 -35 220 -29 75 -48 111
-72 137 -15 17 -28 33 -28 37 0 4 -11 13 -25 19 -14 6 -25 17 -25 24 -1 31
-229 116 -385 142 -22 4 -112 24 -200 46 -88 21 -176 41 -195 45 -19 3 -89 19
-155 35 -66 15 -192 44 -280 64 -88 20 -227 52 -310 72 -82 19 -157 34 -165
33 -8 -1 -50 -5 -93 -9z m3429 -3115 c17 -12 17 -25 6 -226 -7 -118 -15 -394
-18 -614 -3 -220 -9 -403 -12 -407 -4 -4 -309 -10 -677 -14 -714 -8 -715 -8
-715 39 0 13 -4 27 -10 33 -5 5 -14 30 -20 54 -27 126 -33 150 -40 150 -4 0
-7 6 -7 13 0 8 -10 47 -23 88 -13 41 -29 93 -37 117 -7 23 -13 51 -13 62 0 10
-5 20 -10 22 -6 2 -14 26 -19 53 -5 28 -17 75 -26 105 -9 30 -21 73 -26 95 -6
22 -14 44 -20 50 -5 5 -9 20 -9 32 0 13 -6 36 -14 51 -7 15 -17 46 -21 70 -4
23 -10 42 -14 42 -4 0 -8 16 -9 36 -2 20 -9 46 -17 58 -18 25 -20 77 -3 94 18
18 1729 16 1754 -3z m1989 1 c16 -12 17 -30 6 -272 -6 -142 -13 -387 -16 -544
-4 -221 -9 -288 -19 -298 -9 -10 -58 -16 -157 -22 -79 -4 -151 -10 -160 -14
-9 -4 -92 -11 -185 -16 -451 -25 -532 -30 -569 -39 -57 -13 -342 -18 -354 -6
-6 6 -6 184 -1 490 10 562 17 701 37 721 20 19 1391 20 1418 0z m2173 7 c21
-5 23 -10 19 -52 -2 -25 -9 -71 -15 -101 -6 -30 -19 -100 -28 -155 -8 -55 -20
-113 -26 -130 -5 -16 -14 -52 -18 -80 -5 -27 -16 -86 -25 -130 -8 -44 -20
-114 -26 -155 -6 -41 -15 -84 -20 -95 -4 -11 -10 -44 -13 -72 -5 -53 -26 -97
-50 -106 -7 -3 -89 -6 -182 -7 -93 0 -200 -5 -239 -10 -38 -5 -284 -10 -545
-12 l-475 -3 -3 135 c-4 138 14 687 28 864 5 66 12 101 21 107 16 10 1560 12
1597 2z m-301 -1645 c11 -14 3 -104 -15 -178 -14 -59 -31 -143 -41 -205 -4
-27 -13 -70 -19 -95 -14 -57 -32 -150 -43 -220 -5 -30 -14 -92 -21 -137 -7
-45 -16 -85 -20 -89 -4 -4 -11 -29 -14 -56 -8 -62 -20 -68 -172 -79 -62 -5
-122 -14 -132 -19 -10 -6 -46 -10 -80 -10 -33 0 -93 -6 -133 -14 -67 -14 -193
-28 -392 -46 -44 -4 -112 -13 -151 -20 -39 -7 -78 -11 -86 -7 -12 4 -18 25
-22 79 -7 87 -14 1016 -8 1059 l4 29 332 1 c182 1 414 5 516 8 332 13 487 12
497 -1z m-1907 -28 c13 -8 16 -91 22 -601 5 -400 5 -596 -2 -604 -13 -16 -50
-24 -175 -36 -55 -5 -113 -13 -130 -18 -16 -5 -61 -9 -100 -10 -38 -1 -89 -7
-113 -12 -24 -5 -84 -12 -135 -16 -51 -3 -97 -10 -103 -15 -6 -4 -63 -13 -125
-18 -168 -14 -293 -29 -389 -45 -115 -20 -157 -20 -164 3 -8 26 -12 1259 -4
1267 4 4 46 9 95 11 48 2 106 7 128 10 22 3 114 10 205 15 325 16 496 28 549
39 29 5 90 10 135 11 61 0 231 17 286 28 3 0 12 -4 20 -9z m-1982 -142 c6 -8
11 -249 13 -662 4 -569 2 -650 -11 -656 -8 -5 -60 -13 -115 -19 -55 -6 -143
-16 -195 -21 -52 -6 -121 -15 -153 -21 -32 -5 -97 -12 -145 -15 -48 -3 -101
-10 -118 -15 -17 -5 -38 -7 -47 -3 -19 7 -57 85 -57 116 0 11 -5 29 -12 41 -6
12 -15 38 -19 57 -12 56 -30 123 -39 145 -4 11 -18 54 -30 95 -12 41 -29 94
-36 118 -8 23 -14 52 -14 62 0 11 -4 20 -10 20 -5 0 -12 17 -15 38 -9 49 -69
254 -106 362 -4 14 -11 42 -15 63 -3 20 -10 40 -15 43 -5 3 -9 18 -9 34 0 16
-6 41 -14 57 -17 34 -37 116 -29 123 2 3 118 8 256 11 396 10 900 29 905 34 9
8 19 6 30 -7z"/>
</g>
</svg>
