<?xml version="1.0" standalone="no"?>
<!DOCTYPE svg PUBLIC "-//W3C//DTD SVG 20010904//EN"
 "http://www.w3.org/TR/2001/REC-SVG-20010904/DTD/svg10.dtd">
<svg version="1.0" xmlns="http://www.w3.org/2000/svg"
 width="2048.000000pt" height="2048.000000pt" viewBox="0 0 2048.000000 2048.000000"
 preserveAspectRatio="xMidYMid meet">

<g transform="translate(0.000000,2048.000000) scale(0.100000,-0.100000)"
fill="#000000" stroke="none">
<path d="M0 10240 l0 -10240 10240 0 10240 0 0 10240 0 10240 -10240 0 -10240
0 0 -10240z m5892 6505 c40 -8 152 -33 248 -55 96 -23 202 -47 235 -54 33 -8
141 -32 240 -56 99 -23 212 -49 250 -57 39 -8 86 -19 105 -23 19 -5 55 -14 80
-19 25 -6 104 -24 175 -41 72 -17 148 -36 170 -41 55 -13 95 -30 95 -40 0 -5
13 -15 29 -23 37 -20 91 -72 118 -116 80 -131 85 -149 99 -355 3 -44 6 -93 6
-110 1 -16 7 -108 15 -204 7 -95 11 -182 8 -192 -5 -15 -1 -19 15 -19 20 0
366 54 675 105 83 14 236 39 340 55 105 17 246 40 315 51 69 11 163 26 210 34
357 56 667 106 680 110 8 2 92 17 185 32 207 33 400 37 452 10 18 -9 41 -17
53 -17 11 0 20 -4 20 -10 0 -5 6 -10 13 -10 8 0 24 -9 37 -20 13 -11 27 -20
32 -20 14 0 118 -110 118 -126 0 -8 5 -14 10 -14 6 0 17 -16 25 -35 8 -19 23
-52 32 -72 22 -49 23 -58 28 -183 2 -58 7 -124 10 -147 3 -24 3 -43 -2 -43 -4
0 -9 -144 -10 -320 l-2 -320 1427 0 c785 -1 1445 -5 1467 -9 42 -9 94 -27 133
-45 42 -19 122 -101 149 -152 14 -27 31 -80 38 -119 14 -74 6 -157 -31 -350
-8 -44 -19 -105 -23 -135 -5 -30 -12 -62 -15 -71 -4 -8 -13 -53 -21 -100 -7
-46 -21 -118 -29 -159 -30 -139 -46 -225 -55 -295 -5 -38 -14 -83 -20 -98 -6
-16 -11 -41 -11 -56 0 -16 -7 -45 -15 -64 -8 -20 -15 -54 -15 -76 0 -22 -6
-60 -14 -83 -8 -24 -16 -67 -20 -97 -3 -30 -10 -59 -16 -65 -5 -5 -10 -28 -10
-51 0 -22 -5 -56 -10 -75 -6 -19 -15 -64 -20 -100 -16 -122 -32 -205 -46 -238
-8 -18 -14 -49 -14 -70 -1 -20 -7 -55 -15 -77 -8 -22 -15 -57 -15 -77 0 -20
-5 -49 -10 -64 -6 -14 -15 -54 -20 -88 -6 -33 -17 -97 -26 -141 -18 -96 -39
-208 -54 -290 -6 -33 -15 -73 -20 -90 -5 -16 -14 -59 -20 -95 -6 -36 -17 -101
-26 -145 -8 -44 -19 -108 -24 -143 -5 -35 -12 -67 -15 -73 -4 -5 -11 -38 -15
-72 -10 -71 -27 -110 -79 -182 -38 -54 -55 -70 -86 -85 -11 -6 -38 -21 -60
-35 -22 -13 -54 -24 -70 -25 -17 0 -35 -4 -41 -10 -5 -5 -61 -14 -124 -19 -63
-6 -135 -15 -160 -20 -25 -6 -72 -10 -105 -11 -33 0 -77 -5 -97 -10 -20 -6
-86 -15 -145 -20 -172 -14 -315 -31 -353 -41 -34 -9 -114 -19 -355 -42 -66 -7
-125 -15 -132 -20 -6 -4 -62 -10 -123 -14 -61 -3 -113 -10 -116 -15 -3 -4 -33
-8 -67 -9 -34 0 -89 -5 -122 -10 -33 -4 -105 -13 -160 -18 -55 -6 -127 -15
-160 -20 -33 -6 -98 -15 -145 -20 -47 -6 -143 -18 -215 -27 -71 -8 -159 -18
-195 -22 l-65 -7 -3 -1465 c-3 -1478 0 -1628 33 -1804 37 -193 103 -424 152
-536 11 -25 28 -64 38 -88 39 -91 189 -199 352 -253 223 -75 605 -78 1033 -8
328 53 700 142 838 200 26 11 128 60 227 109 195 96 250 120 365 157 275 88
567 85 790 -9 41 -17 82 -36 90 -42 8 -6 31 -20 50 -30 212 -117 469 -426 627
-756 88 -183 185 -426 227 -570 73 -247 69 -515 -11 -714 -56 -140 -115 -229
-227 -341 -157 -156 -313 -253 -601 -375 -55 -23 -118 -50 -140 -60 -75 -33
-200 -82 -270 -105 -38 -13 -95 -33 -125 -45 -30 -11 -93 -35 -140 -52 -47
-16 -98 -36 -115 -43 -70 -30 -519 -172 -680 -216 -44 -12 -111 -30 -150 -41
-217 -58 -611 -138 -860 -173 -381 -53 -643 -69 -1065 -62 -504 8 -850 48
-1286 147 -120 27 -280 74 -439 130 -310 108 -623 275 -870 462 -178 135 -403
356 -525 518 -19 25 -37 47 -41 50 -13 11 -149 218 -149 228 0 6 -4 12 -8 14
-19 7 -164 280 -217 408 -15 36 -33 79 -40 95 -7 17 -23 57 -34 90 -12 33 -26
69 -31 80 -10 24 -59 178 -93 295 -49 166 -99 399 -147 685 -15 88 -37 285
-56 500 -20 222 -22 535 -28 5035 -3 2632 -6 3020 -21 3089 -5 26 -13 148 -20
311 -9 203 -15 297 -20 329 -6 32 -11 96 -19 226 -14 241 -20 296 -30 304 -6
5 -45 16 -86 25 -41 9 -93 21 -115 26 -22 6 -130 30 -240 55 -110 25 -227 52
-260 59 -33 8 -112 26 -175 41 -204 47 -244 58 -280 80 -19 12 -50 27 -67 34
-18 8 -33 17 -33 22 0 5 -13 17 -30 28 -16 10 -28 20 -25 23 3 3 -6 13 -20 22
-14 9 -25 21 -25 26 0 6 -11 28 -25 50 -27 43 -49 104 -59 160 -6 39 -9 156
-4 180 9 41 84 200 96 200 6 0 12 6 12 13 0 7 19 29 41 48 23 19 47 39 53 45
26 24 148 77 198 84 81 12 100 11 180 -5z"/>
<path d="M7430 13586 c0 -12 29 -114 77 -271 8 -27 21 -70 28 -95 8 -25 18
-58 24 -75 5 -16 15 -50 21 -75 6 -25 16 -58 21 -75 20 -57 41 -130 50 -175 5
-24 14 -49 19 -54 6 -6 10 -24 10 -41 0 -17 5 -36 11 -42 6 -6 18 -37 26 -70
17 -69 26 -101 48 -168 9 -27 19 -56 21 -62 3 -10 146 -13 673 -13 408 0 672
4 676 9 3 6 7 157 9 338 3 180 10 427 16 548 6 121 12 245 13 275 l2 55 -872
3 c-736 2 -873 0 -873 -12z"/>
<path d="M9746 13538 c-14 -143 -26 -513 -26 -808 l-1 -315 93 1 c51 0 201 8
333 18 132 10 299 22 370 26 72 4 182 12 245 19 63 6 172 16 243 23 70 6 128
14 128 17 1 3 3 114 4 246 1 132 8 339 14 460 6 121 13 254 14 295 l2 75 -707
3 -706 2 -6 -62z"/>
<path d="M11736 13518 c-26 -350 -37 -971 -18 -990 12 -12 1180 20 1354 37 85
9 74 -4 98 115 6 30 15 75 20 100 5 25 18 97 30 160 11 63 24 131 29 150 5 19
15 64 21 100 7 36 18 97 26 135 19 89 43 235 44 258 0 16 -45 17 -799 17
l-799 0 -6 -82z"/>
<path d="M12131 11963 l-434 -3 7 -508 c3 -279 6 -536 6 -571 l0 -63 33 6 c17
3 82 10 142 16 61 5 166 16 235 25 69 9 168 20 220 26 52 5 111 13 130 19 19
5 80 12 135 15 55 3 104 10 109 15 6 6 31 10 57 10 28 0 54 6 62 14 8 8 17 43
21 77 3 35 11 68 16 73 6 6 10 24 10 41 0 16 7 55 15 85 8 30 15 74 15 96 0
23 7 58 15 77 8 20 15 58 15 84 1 26 7 59 15 73 8 14 14 40 15 58 0 19 7 61
14 95 25 106 46 211 46 230 0 16 -17 17 -232 15 -128 -2 -428 -4 -667 -5z"/>
<path d="M11098 11935 c-2 -3 -69 -9 -149 -15 -366 -25 -439 -31 -507 -40 -40
-6 -120 -10 -176 -10 -56 0 -127 -4 -157 -9 -30 -5 -126 -12 -213 -15 -88 -3
-164 -10 -169 -15 -13 -13 -5 -1237 9 -1251 8 -8 23 -7 55 4 24 9 76 16 114
16 39 0 102 7 140 15 39 8 93 15 120 15 28 0 82 7 120 15 39 8 95 15 125 15
30 0 80 7 110 15 30 8 82 15 115 15 33 0 89 5 125 11 36 6 103 14 150 19 47 4
118 13 158 20 l72 12 -6 582 c-3 319 -7 587 -9 594 -4 12 -18 16 -27 7z"/>
<path d="M8925 11789 c-93 -4 -334 -10 -535 -14 -201 -3 -376 -8 -389 -11 -20
-4 -22 -10 -18 -37 5 -35 54 -210 67 -242 5 -11 12 -36 16 -55 3 -19 10 -41
15 -50 9 -18 42 -127 65 -220 9 -36 20 -69 25 -74 5 -6 9 -22 9 -36 0 -14 6
-34 14 -45 7 -11 16 -40 19 -64 3 -24 10 -47 15 -50 5 -3 12 -24 15 -46 4 -22
11 -41 17 -43 5 -2 10 -18 10 -35 0 -17 6 -49 14 -72 11 -32 67 -213 82 -262
4 -16 109 -17 169 -3 22 5 99 14 170 20 72 7 134 16 139 21 6 5 37 9 70 10 34
0 102 8 151 17 l90 18 0 69 c0 39 -4 322 -8 629 -8 553 -10 589 -41 584 -6 -1
-87 -5 -181 -9z"/>
</g>
</svg>
